<mxfile host="Electron" modified="2023-11-07T04:46:30.533Z" agent="Mozilla/5.0 (X11; Linux x86_64) AppleWebKit/537.36 (KHTML, like Gecko) draw.io/22.0.3 Chrome/114.0.5735.289 Electron/25.8.4 Safari/537.36" etag="XXlYmNI17CIJWExkRPIX" version="22.0.3" type="device">
  <diagram name="Page-1" id="jNcVfUFwNesNaKVuXYyC">
    <mxGraphModel dx="1362" dy="843" grid="1" gridSize="10" guides="1" tooltips="1" connect="1" arrows="1" fold="1" page="1" pageScale="1" pageWidth="850" pageHeight="1100" math="0" shadow="0">
      <root>
        <mxCell id="0" />
        <mxCell id="1" parent="0" />
        <mxCell id="jNckEClQxKYpTligdhL6-25" value="" style="rounded=0;whiteSpace=wrap;html=1;fillColor=none;strokeWidth=2;" parent="1" vertex="1">
          <mxGeometry x="40" y="40" width="540" height="360" as="geometry" />
        </mxCell>
        <mxCell id="jNckEClQxKYpTligdhL6-2" value="" style="rounded=0;whiteSpace=wrap;html=1;fillColor=#4D4D4D;" parent="1" vertex="1">
          <mxGeometry x="40" y="40" width="130" height="130" as="geometry" />
        </mxCell>
        <mxCell id="jNckEClQxKYpTligdhL6-3" value="" style="rounded=0;whiteSpace=wrap;html=1;fillColor=#4D4D4D;" parent="1" vertex="1">
          <mxGeometry x="380" y="120" width="60" height="180" as="geometry" />
        </mxCell>
        <mxCell id="jNckEClQxKYpTligdhL6-4" value="" style="ellipse;whiteSpace=wrap;html=1;aspect=fixed;fillColor=#000099;strokeColor=#000099;direction=south;" parent="1" vertex="1">
          <mxGeometry x="60" y="222" width="20" height="20" as="geometry" />
        </mxCell>
        <mxCell id="jNckEClQxKYpTligdhL6-5" value="" style="endArrow=classic;html=1;rounded=0;strokeWidth=2;strokeColor=#000099;" parent="1" edge="1">
          <mxGeometry width="50" height="50" relative="1" as="geometry">
            <mxPoint x="70" y="232" as="sourcePoint" />
            <mxPoint x="90" y="212" as="targetPoint" />
          </mxGeometry>
        </mxCell>
        <mxCell id="jNckEClQxKYpTligdhL6-6" value="" style="ellipse;whiteSpace=wrap;html=1;aspect=fixed;fillColor=#000099;strokeColor=#000099;" parent="1" vertex="1">
          <mxGeometry x="250" y="150" width="20" height="20" as="geometry" />
        </mxCell>
        <mxCell id="jNckEClQxKYpTligdhL6-7" value="" style="endArrow=classic;html=1;rounded=0;strokeWidth=2;strokeColor=#000099;" parent="1" edge="1">
          <mxGeometry width="50" height="50" relative="1" as="geometry">
            <mxPoint x="260" y="160" as="sourcePoint" />
            <mxPoint x="240" y="140" as="targetPoint" />
          </mxGeometry>
        </mxCell>
        <mxCell id="jNckEClQxKYpTligdhL6-9" value="" style="ellipse;whiteSpace=wrap;html=1;aspect=fixed;fillColor=#000099;strokeColor=#000099;" parent="1" vertex="1">
          <mxGeometry x="340" y="50" width="20" height="20" as="geometry" />
        </mxCell>
        <mxCell id="jNckEClQxKYpTligdhL6-10" value="" style="endArrow=classic;html=1;rounded=0;strokeWidth=2;strokeColor=#000099;" parent="1" edge="1">
          <mxGeometry width="50" height="50" relative="1" as="geometry">
            <mxPoint x="350" y="60" as="sourcePoint" />
            <mxPoint x="370" y="80" as="targetPoint" />
          </mxGeometry>
        </mxCell>
        <mxCell id="jNckEClQxKYpTligdhL6-11" value="" style="ellipse;whiteSpace=wrap;html=1;aspect=fixed;fillColor=#000099;strokeColor=#000099;" parent="1" vertex="1">
          <mxGeometry x="143" y="308" width="20" height="20" as="geometry" />
        </mxCell>
        <mxCell id="jNckEClQxKYpTligdhL6-12" value="" style="endArrow=classic;html=1;rounded=0;strokeWidth=2;strokeColor=#000099;" parent="1" edge="1">
          <mxGeometry width="50" height="50" relative="1" as="geometry">
            <mxPoint x="153" y="318" as="sourcePoint" />
            <mxPoint x="180" y="340" as="targetPoint" />
          </mxGeometry>
        </mxCell>
        <mxCell id="jNckEClQxKYpTligdhL6-13" value="" style="ellipse;whiteSpace=wrap;html=1;aspect=fixed;fillColor=#000099;strokeColor=#000099;" parent="1" vertex="1">
          <mxGeometry x="250" y="260" width="20" height="20" as="geometry" />
        </mxCell>
        <mxCell id="jNckEClQxKYpTligdhL6-14" value="" style="endArrow=classic;html=1;rounded=0;strokeWidth=2;strokeColor=#000099;" parent="1" edge="1">
          <mxGeometry width="50" height="50" relative="1" as="geometry">
            <mxPoint x="260" y="270" as="sourcePoint" />
            <mxPoint x="290" y="270" as="targetPoint" />
          </mxGeometry>
        </mxCell>
        <mxCell id="jNckEClQxKYpTligdhL6-15" value="" style="ellipse;whiteSpace=wrap;html=1;aspect=fixed;fillColor=#000099;strokeColor=#000099;" parent="1" vertex="1">
          <mxGeometry x="520" y="313" width="20" height="20" as="geometry" />
        </mxCell>
        <mxCell id="jNckEClQxKYpTligdhL6-16" value="" style="endArrow=classic;html=1;rounded=0;strokeWidth=2;strokeColor=#000099;" parent="1" edge="1">
          <mxGeometry width="50" height="50" relative="1" as="geometry">
            <mxPoint x="530" y="323" as="sourcePoint" />
            <mxPoint x="500" y="310" as="targetPoint" />
          </mxGeometry>
        </mxCell>
        <mxCell id="jNckEClQxKYpTligdhL6-17" value="" style="ellipse;whiteSpace=wrap;html=1;aspect=fixed;fillColor=#000099;strokeColor=#000099;" parent="1" vertex="1">
          <mxGeometry x="498" y="190" width="20" height="20" as="geometry" />
        </mxCell>
        <mxCell id="jNckEClQxKYpTligdhL6-18" value="" style="endArrow=classic;html=1;rounded=0;strokeWidth=2;strokeColor=#000099;" parent="1" edge="1">
          <mxGeometry width="50" height="50" relative="1" as="geometry">
            <mxPoint x="508" y="200" as="sourcePoint" />
            <mxPoint x="538" y="190" as="targetPoint" />
          </mxGeometry>
        </mxCell>
        <mxCell id="jNckEClQxKYpTligdhL6-19" value="" style="ellipse;whiteSpace=wrap;html=1;aspect=fixed;fillColor=#000099;strokeColor=#000099;" parent="1" vertex="1">
          <mxGeometry x="510" y="90" width="20" height="20" as="geometry" />
        </mxCell>
        <mxCell id="jNckEClQxKYpTligdhL6-20" value="" style="endArrow=classic;html=1;rounded=0;strokeWidth=2;strokeColor=#000099;" parent="1" edge="1">
          <mxGeometry width="50" height="50" relative="1" as="geometry">
            <mxPoint x="520" y="100" as="sourcePoint" />
            <mxPoint x="490" y="110" as="targetPoint" />
          </mxGeometry>
        </mxCell>
        <mxCell id="jNckEClQxKYpTligdhL6-21" value="" style="ellipse;whiteSpace=wrap;html=1;aspect=fixed;fillColor=#000099;strokeColor=#000099;" parent="1" vertex="1">
          <mxGeometry x="310" y="358" width="20" height="20" as="geometry" />
        </mxCell>
        <mxCell id="jNckEClQxKYpTligdhL6-22" value="" style="endArrow=classic;html=1;rounded=0;strokeWidth=2;strokeColor=#000099;" parent="1" edge="1">
          <mxGeometry width="50" height="50" relative="1" as="geometry">
            <mxPoint x="320" y="368" as="sourcePoint" />
            <mxPoint x="300" y="340" as="targetPoint" />
          </mxGeometry>
        </mxCell>
        <mxCell id="jNckEClQxKYpTligdhL6-23" value="" style="ellipse;whiteSpace=wrap;html=1;aspect=fixed;fillColor=#000099;strokeColor=#000099;" parent="1" vertex="1">
          <mxGeometry x="50" y="350" width="20" height="20" as="geometry" />
        </mxCell>
        <mxCell id="jNckEClQxKYpTligdhL6-24" value="" style="endArrow=classic;html=1;rounded=0;strokeWidth=2;strokeColor=#000099;" parent="1" edge="1">
          <mxGeometry width="50" height="50" relative="1" as="geometry">
            <mxPoint x="60" y="360" as="sourcePoint" />
            <mxPoint x="80" y="340" as="targetPoint" />
          </mxGeometry>
        </mxCell>
        <mxCell id="3gxIKUe2GDKvynj0c3NS-1" value="1" style="text;html=1;strokeColor=none;fillColor=none;align=center;verticalAlign=middle;whiteSpace=wrap;rounded=0;fontColor=#CC0000;fontSize=30;fontStyle=1" vertex="1" parent="1">
          <mxGeometry x="40" y="50" width="60" height="30" as="geometry" />
        </mxCell>
      </root>
    </mxGraphModel>
  </diagram>
</mxfile>
